# xmcd
#
# Track frame offsets:
#	150
#	20307
#	36467
#	51463
#	64776
#	81729
#	97450
#	112707
#	127960
#	142147
#	156324
#	170080
#	185166
#	202492
#	215987
#	232637
#	249367
#	262237
#	278644
#
# Disc length: 3940 seconds
#
# Revision: 6
# Processed by: cddbd v1.5.2PL0 Copyright (c) Steve Scherf et al.
# Submitted via: dBpowerAMP V4.0
#
DISCID=350f6213
DTITLE=Don Omar - El Pentagono
DYEAR=2007
DGENRE=
TTITLE0=Easy
TTITLE1=Calm My Nerves
TTITLE2=Veo
TTITLE3=Ok
TTITLE4=Vida Loca
TTITLE5=Mala Es
TTITLE6=Suave Al Oido
TTITLE7=Just Like Sexo
TTITLE8=La Mujer De Mis Suenos
TTITLE9=Pide Mas
TTITLE10=Dame De Eso
TTITLE11=Ellos Quieren
TTITLE12=Yo No Se Porque
TTITLE13=Nosotros Dos
TTITLE14=El Brindis
TTITLE15=Corre Peligro
TTITLE16=No Sera Lo Mismo
TTITLE17=La Bella Crisis
TTITLE18=Contigo
EXTD=
EXTT0=
EXTT1=
EXTT2=
EXTT3=
EXTT4=
EXTT5=
EXTT6=
EXTT7=
EXTT8=
EXTT9=
EXTT10=
EXTT11=
EXTT12=
EXTT13=
EXTT14=
EXTT15=
EXTT16=
EXTT17=
EXTT18=
PLAYORDER=
